<?xml version="1.0" standalone="no"?>
<!DOCTYPE svg PUBLIC "-//W3C//DTD SVG 20010904//EN"
 "http://www.w3.org/TR/2001/REC-SVG-20010904/DTD/svg10.dtd">
<svg version="1.0" xmlns="http://www.w3.org/2000/svg"
 width="512.000000pt" height="512.000000pt" viewBox="0 0 512.000000 512.000000"
 preserveAspectRatio="xMidYMid meet">
<metadata>
Created by potrace 1.14, written by Peter Selinger 2001-2017
</metadata>
<g transform="translate(0.000000,512.000000) scale(0.100000,-0.100000)"
fill="#000000" stroke="none">
<path d="M1398 4063 c-157 -32 -299 -176 -324 -328 -4 -22 -7 -562 -7 -1200
l1 -1160 22 -60 c13 -33 33 -76 46 -96 25 -40 109 -119 145 -135 13 -6 35 -17
49 -23 14 -6 36 -15 50 -19 14 -4 549 -8 1190 -9 994 -2 1173 -1 1220 12 151
40 256 139 300 283 19 61 20 95 20 662 0 393 -4 608 -10 626 -28 73 -132 83
-175 17 -15 -22 -16 -87 -16 -616 0 -351 -4 -607 -10 -629 -14 -54 -84 -126
-139 -142 -36 -11 -271 -13 -1185 -12 -1017 1 -1144 3 -1176 17 -48 22 -82 56
-108 107 l-22 44 0 1148 c0 1036 1 1151 16 1186 21 52 61 92 111 115 38 17 86
19 835 20 450 1 806 6 821 11 75 26 79 149 6 179 -43 18 -1573 20 -1660 2z"/>
<path d="M3695 3831 c-22 -10 -52 -30 -66 -43 -23 -21 -164 -193 -263 -322
-22 -28 -60 -76 -85 -107 -62 -74 -85 -104 -256 -319 -80 -102 -156 -196 -168
-210 -13 -14 -56 -68 -97 -120 -130 -166 -169 -200 -222 -200 -40 0 -82 34
-262 213 -222 221 -277 252 -372 212 -31 -13 -114 -75 -100 -75 3 0 -3 -19
-14 -41 -10 -23 -16 -54 -14 -68 10 -61 16 -81 24 -81 5 0 11 -9 15 -19 3 -11
143 -157 311 -325 316 -315 367 -356 438 -356 31 0 98 28 126 52 15 12 131
151 195 232 47 61 119 150 132 166 14 17 151 187 191 239 26 32 75 93 110 136
10 11 29 36 43 55 15 19 35 45 45 57 90 103 504 633 522 667 30 58 31 113 1
167 -49 89 -154 129 -234 90z"/>
</g>
</svg>
